<svg width="350" height="79" viewBox="0 0 350 79" fill="none" xmlns="http://www.w3.org/2000/svg">
<path d="M78.5038 39.002C78.5038 31.2882 76.2164 23.7476 71.9308 17.3337C67.6452 10.9199 61.5539 5.92094 54.4273 2.96898C47.3006 0.017021 39.4586 -0.755347 31.893 0.74955C24.3274 2.25445 17.3779 5.96902 11.9234 11.4235C6.46889 16.878 2.75432 23.8275 1.24943 31.3931C-0.255469 38.9588 0.516899 46.8007 3.46886 53.9274C6.42082 61.0541 11.4198 67.1453 17.8336 71.4309C24.2474 75.7165 31.7881 78.0039 39.5019 78.0039C44.6239 78.0044 49.6957 76.996 54.4279 75.0361C59.16 73.0762 63.4598 70.2034 67.0815 66.5817C70.7033 62.9599 73.5761 58.6602 75.536 53.928C77.4958 49.1959 78.5043 44.124 78.5038 39.002Z" fill="#B7ECB1"/>
<path d="M17.1101 30.7298H19.2286L12.9415 45.6654H12.4593L6.05078 30.7298H8.19203L12.6644 41.1741L17.1101 30.7298Z" fill="#91BD9D"/>
<path d="M25.4354 39.7124V43.8886C25.4354 44.2227 25.5493 44.3897 25.7771 44.3897C26.1826 44.3149 26.5611 44.1341 26.8743 43.8658V45.0503C26.5399 45.2751 26.1852 45.4683 25.815 45.6274C25.5486 45.7304 25.2654 45.7832 24.9798 45.7831C24.1496 45.7831 23.6599 45.4565 23.5105 44.8035C22.7677 45.4121 21.8398 45.7496 20.8795 45.7603C20.5644 45.7692 20.2508 45.7138 19.9577 45.5977C19.6647 45.4815 19.3983 45.3069 19.1749 45.0845C18.9506 44.8639 18.7744 44.5992 18.6574 44.3071C18.5404 44.015 18.4852 43.7019 18.4953 43.3874C18.4943 42.7705 18.7324 42.1772 19.1597 41.7321C19.6882 41.2009 20.3406 40.8095 21.058 40.5932L23.5371 39.739V39.2188C23.5371 38.0419 22.9487 37.4496 21.7717 37.4496C20.7112 37.4496 19.6824 37.9963 18.6851 39.0897V36.9447C19.4444 36.0614 20.5265 35.6184 21.9312 35.6159C22.8502 35.5749 23.7525 35.872 24.4673 36.4511C24.9373 36.8669 25.2541 37.4284 25.367 38.0457C25.4253 38.6018 25.4481 39.161 25.4354 39.72V39.7124ZM23.5371 43.6722V40.764L22.2387 41.2652C21.7267 41.4408 21.2517 41.7099 20.8378 42.0586C20.5827 42.3262 20.4404 42.6817 20.4404 43.0514C20.4404 43.4211 20.5827 43.7766 20.8378 44.0442C20.9712 44.1721 21.1291 44.2716 21.302 44.3369C21.4749 44.4021 21.6592 44.4317 21.8439 44.4239C22.1654 44.4173 22.4824 44.3468 22.7763 44.2164C23.0703 44.0861 23.3354 43.8985 23.5561 43.6646" fill="#91BD9D"/>
<path d="M30.5691 30.7298H28.6328V45.6046H30.5691V30.7298Z" fill="#91BD9D"/>
<path d="M45.4626 30.7298H47.4558V45.6008H45.3146V34.029L40.7397 39.7769H40.3487L35.7207 34.029V45.6008H33.5908V30.7298H35.6068L40.5499 36.8384L45.4626 30.7298Z" fill="#91BD9D"/>
<path d="M56.5494 39.7124V43.8886C56.5494 44.2227 56.6595 44.3897 56.8873 44.3897C57.2928 44.3149 57.6714 44.1341 57.9845 43.8658V45.0503C57.6501 45.2751 57.2955 45.4683 56.9253 45.6274C56.659 45.7308 56.3757 45.7836 56.09 45.7831C55.2599 45.7831 54.7701 45.4566 54.6208 44.8036C53.878 45.4122 52.95 45.7496 51.9898 45.7603C51.6752 45.7695 51.362 45.7144 51.0695 45.5982C50.777 45.4819 50.5114 45.3071 50.2889 45.0845C50.0639 44.8642 49.887 44.5997 49.7694 44.3076C49.6518 44.0155 49.596 43.7022 49.6055 43.3874C49.6045 42.7705 49.8427 42.1772 50.2699 41.7321C50.7985 41.2009 51.4508 40.8095 52.1682 40.5932L54.6512 39.739V39.2188C54.6512 38.0419 54.0589 37.4496 52.882 37.4496C51.8215 37.4496 50.7926 37.9963 49.7954 39.0897V36.9447C50.5547 36.0614 51.6367 35.6184 53.0414 35.6159C53.9622 35.5702 54.8676 35.8648 55.5851 36.4436C55.8175 36.6446 56.0128 36.8849 56.1622 37.1535C56.3242 37.4256 56.4337 37.7256 56.4849 38.0381C56.545 38.5941 56.5691 39.1533 56.557 39.7124H56.5494ZM54.6587 43.6646V40.7564L53.3565 41.2576C52.846 41.434 52.3724 41.703 51.9594 42.0511C51.7004 42.3153 51.5534 42.6693 51.5491 43.0393C51.5449 43.4093 51.6837 43.7666 51.9366 44.0367C52.0703 44.1641 52.2283 44.2634 52.4011 44.3287C52.5739 44.3939 52.7581 44.4237 52.9427 44.4163C53.2647 44.4094 53.5822 44.3387 53.8767 44.2084C54.1713 44.0781 54.4371 43.8907 54.6587 43.657" fill="#91BD9D"/>
<path d="M61.7725 35.8057V38.0533L61.8788 37.8825C62.8178 36.3638 63.7556 35.6045 64.692 35.6045C65.421 35.6045 66.1803 35.9728 66.97 36.7093L65.9487 38.414C65.2729 37.7761 64.6477 37.4572 64.0732 37.4572C63.7506 37.4645 63.4345 37.5493 63.1516 37.7046C62.8688 37.8599 62.6275 38.0811 62.4483 38.3494C61.9872 38.9581 61.7451 39.7045 61.7611 40.4679V45.6008H59.8135V35.8057H61.7725Z" fill="#91BD9D"/>
<path d="M69.336 31.6865C69.4878 31.6841 69.6386 31.7121 69.7794 31.7688C69.9202 31.8255 70.0483 31.9099 70.1561 32.0168C70.2651 32.121 70.3514 32.2466 70.4096 32.3858C70.4677 32.5249 70.4965 32.6746 70.494 32.8254C70.4881 33.1257 70.3663 33.412 70.1539 33.6244C69.9416 33.8367 69.6553 33.9586 69.355 33.9644C69.2066 33.9647 69.0598 33.9341 68.9239 33.8747C68.7879 33.8152 68.6658 33.7281 68.5653 33.6189C68.4571 33.5147 68.3711 33.3896 68.3124 33.2513C68.2537 33.113 68.2235 32.9643 68.2236 32.8141C68.2244 32.6656 68.255 32.5189 68.3137 32.3825C68.3724 32.2462 68.458 32.1231 68.5653 32.0206C68.6658 31.9114 68.7879 31.8243 68.9239 31.7649C69.0598 31.7054 69.2066 31.6748 69.355 31.6751L69.336 31.6865ZM68.3755 35.8057H70.3155V45.6008H68.3755V35.8057Z" fill="#91BD9D"/>
<path d="M17.528 30.3501H19.6464L13.3594 45.2857H12.8772L6.46484 30.3501H8.60989L13.0822 40.7944L17.528 30.3501Z" fill="white"/>
<path d="M25.8534 39.3327V43.5089C25.8534 43.843 25.9673 44.0101 26.195 44.0101C26.6004 43.9345 26.9787 43.7539 27.2922 43.4861V44.6707C26.9578 44.8954 26.6032 45.0886 26.233 45.2477C25.9653 45.3508 25.6808 45.4036 25.394 45.4034C24.5663 45.4034 24.0766 45.0769 23.9247 44.4239C23.1837 45.033 22.2567 45.3706 21.2975 45.3806C20.9824 45.3897 20.6687 45.3345 20.3756 45.2183C20.0825 45.1021 19.8162 44.9274 19.5929 44.7048C19.3685 44.4842 19.1923 44.2196 19.0754 43.9275C18.9584 43.6354 18.9032 43.3222 18.9133 43.0078C18.9122 42.3908 19.1504 41.7975 19.5777 41.3525C20.1062 40.8213 20.7585 40.4299 21.4759 40.2135L23.9551 39.3593V38.8392C23.9551 37.6622 23.3666 37.07 22.1897 37.07C21.1317 37.07 20.1016 37.6167 19.0993 38.7101V36.565C19.8586 35.6817 20.9419 35.2388 22.3491 35.2363C23.2682 35.1952 24.1704 35.4924 24.8852 36.0715C25.1164 36.2728 25.3104 36.5131 25.4585 36.7814C25.6216 37.0534 25.7324 37.3534 25.785 37.666C25.8432 38.2221 25.866 38.7813 25.8534 39.3403V39.3327ZM23.9551 43.2925V40.3844L22.6567 40.8855C22.1447 41.0612 21.6697 41.3302 21.2557 41.679C20.9989 41.9457 20.8554 42.3015 20.8554 42.6718C20.8554 43.042 20.9989 43.3979 21.2557 43.6646C21.3892 43.7924 21.5471 43.892 21.72 43.9572C21.8929 44.0224 22.0772 44.0521 22.2618 44.0442C22.5833 44.0373 22.9001 43.9665 23.1941 43.8362C23.488 43.7059 23.7531 43.5185 23.9741 43.2849" fill="white"/>
<path d="M30.9821 30.3501H29.0459V45.225H30.9821V30.3501Z" fill="white"/>
<path d="M45.8806 30.3501H47.87V45.2212H45.7325V33.6493L41.1577 39.3973H40.7628L36.1386 33.6493V45.2212H34.0088V30.3501H36.0248L40.9679 36.4587L45.8806 30.3501Z" fill="white"/>
<path d="M56.9627 39.3327V43.5089C56.9627 43.843 57.0766 44.0101 57.3044 44.0101C57.71 43.9352 58.0885 43.7545 58.4016 43.4862V44.6707C58.0672 44.8955 57.7126 45.0886 57.3424 45.2477C57.076 45.3508 56.7928 45.4036 56.5072 45.4034C55.677 45.4034 55.1872 45.0769 55.0379 44.4239C54.2951 45.0325 53.3671 45.3699 52.4069 45.3806C52.0918 45.3895 51.7781 45.3342 51.4851 45.218C51.192 45.1018 50.9257 44.9272 50.7022 44.7048C50.4779 44.4842 50.3017 44.2196 50.1847 43.9275C50.0678 43.6354 50.0126 43.3223 50.0227 43.0078C50.0216 42.3908 50.2598 41.7975 50.687 41.3525C51.2156 40.8213 51.8679 40.4299 52.5853 40.2135L55.0645 39.3593V38.8392C55.0645 37.6623 54.476 37.07 53.2991 37.07C52.2411 37.07 51.2122 37.6167 50.2125 38.7101V36.5651C50.9718 35.6817 52.0538 35.2388 53.4585 35.2363C54.3792 35.1912 55.2843 35.4857 56.0022 36.0639C56.4686 36.4826 56.7847 37.0428 56.902 37.6585C56.9602 38.2145 56.983 38.7738 56.9703 39.3327H56.9627ZM55.0721 43.2849V40.3768L53.7736 40.8779C53.2617 41.0536 52.7867 41.3226 52.3727 41.6714C52.1133 41.9356 51.9664 42.2901 51.9629 42.6604C51.9594 43.0306 52.0995 43.3878 52.3537 43.657C52.4872 43.7848 52.6451 43.8844 52.818 43.9496C52.9909 44.0149 53.1752 44.0445 53.3598 44.0367C53.6813 44.0297 53.9981 43.959 54.292 43.8286C54.586 43.6983 54.8511 43.5109 55.0721 43.2773" fill="white"/>
<path d="M62.1906 35.4261V37.6736L62.2969 37.5028C63.2334 35.9842 64.1711 35.2249 65.1101 35.2249C65.839 35.2249 66.5984 35.5931 67.388 36.3297L66.3668 38.0343C65.6948 37.3965 65.0683 37.0776 64.4951 37.0776C64.1725 37.0848 63.8564 37.1697 63.5735 37.325C63.2907 37.4803 63.0494 37.7015 62.8702 37.9698C62.4075 38.5776 62.1651 39.3246 62.183 40.0882V45.2212H60.2354V35.4261H62.1906Z" fill="white"/>
<path d="M69.7496 31.3068C69.9014 31.3045 70.0522 31.3325 70.193 31.3892C70.3339 31.4459 70.4619 31.5302 70.5697 31.6371C70.68 31.7406 70.7674 31.866 70.8262 32.0053C70.8851 32.1445 70.9141 32.2946 70.9114 32.4458C70.9127 32.5968 70.8831 32.7464 70.8243 32.8855C70.7655 33.0246 70.6789 33.1502 70.5697 33.2545C70.4629 33.3635 70.3352 33.4499 70.1944 33.5086C70.0535 33.5673 69.9023 33.597 69.7496 33.5962C69.6019 33.5959 69.4558 33.5651 69.3206 33.5056C69.1853 33.4462 69.0638 33.3594 68.9638 33.2507C68.8556 33.1464 68.7695 33.0214 68.7108 32.8831C68.6521 32.7448 68.6219 32.5961 68.6221 32.4458C68.6228 32.2974 68.6534 32.1506 68.7121 32.0143C68.7708 31.878 68.8564 31.7549 68.9638 31.6523C69.0638 31.5436 69.1853 31.4568 69.3206 31.3974C69.4558 31.3379 69.6019 31.3071 69.7496 31.3068ZM68.7929 35.4261H70.7405V45.2212H68.8043L68.7929 35.4261Z" fill="white"/>
<path opacity="0.8" d="M95.7756 46.1791H96.6193C98.6136 46.1791 99.2017 45.1052 99.7386 43.878L104.264 32.9092H102.577L99.2784 41.0399L95.6733 32.9092H93.9602L98.4858 42.9319L98.2812 43.4177C98 44.0569 97.5398 44.6961 96.5938 44.6961H95.7756V46.1791ZM112.398 36.1819H110.89V41.1613C110.161 41.3723 109.413 41.5001 108.512 41.5001C107.284 41.5001 106.338 40.8098 106.338 39.3013V36.1564H104.83V39.3013C104.83 41.7047 106.287 42.9064 108.512 42.9064C109.439 42.9064 110.18 42.7849 110.89 42.574V46.0001H112.398V36.1819ZM119.282 46.2047C121.277 46.2047 122.734 45.2075 123.194 43.7246L121.737 43.3155C121.353 44.3382 120.465 44.8496 119.282 44.8496C117.512 44.8496 116.291 43.7054 116.221 41.6024H123.348V40.9632C123.348 37.3069 121.174 36.0541 119.129 36.0541C116.47 36.0541 114.706 38.1507 114.706 41.1677C114.706 44.1848 116.444 46.2047 119.282 46.2047ZM116.221 40.2984C116.323 38.7707 117.403 37.4092 119.129 37.4092C120.765 37.4092 121.814 38.6365 121.814 40.2984H116.221ZM132.929 32.5001C132.45 32.9028 131.734 32.9028 130.73 32.8964C130.404 32.8964 130.047 32.8964 129.657 32.9092C126.665 32.9859 125.182 35.2615 125.182 39.6336V40.6819C125.182 44.3126 126.946 46.2047 129.58 46.2047C132.207 46.2047 133.952 44.2998 133.952 41.2189C133.952 38.1251 132.181 36.4888 129.887 36.4888C128.538 36.4888 127.279 37.0513 126.614 38.2785H126.486C126.691 35.7473 127.637 34.3922 129.682 34.3155C131.498 34.2388 132.801 34.2899 133.696 33.4206L132.929 32.5001ZM129.58 44.8496C127.79 44.8496 126.691 43.4177 126.691 41.2189C126.723 39.0711 127.803 37.8439 129.554 37.8439C131.35 37.8439 132.444 39.0711 132.444 41.2189C132.444 43.4305 131.357 44.8496 129.58 44.8496ZM137.768 36.1819H136.26V46.0001H137.768V41.8069H142.473V46.0001H143.981V36.1819H142.473V40.4007H137.768V36.1819ZM148.245 39.7359V36.1819H146.736V46.0001H150.853C153.154 46.0001 154.407 44.5939 154.407 42.8297C154.407 41.0399 153.154 39.7359 150.853 39.7359H148.245ZM155.966 46.0001H157.475V36.1819H155.966V46.0001ZM148.245 41.1422H150.853C152.048 41.1422 152.898 41.8709 152.898 42.9064C152.898 43.8971 152.048 44.5939 150.853 44.5939H148.245V41.1422ZM161.745 43.7757V36.1819H160.236V46.0001H162L166.705 38.4064V46.0001H168.213V36.1819H166.475L161.745 43.7757ZM165.478 32.9092C165.478 33.574 165.12 34.1621 164.225 34.1621C163.33 34.1621 162.998 33.574 162.998 32.9092H161.591C161.591 34.2899 162.614 35.2615 164.225 35.2615C165.861 35.2615 166.884 34.2899 166.884 32.9092H165.478ZM183.76 36.1819H182.252V44.5939H177.547V36.1819H176.039V46.0001H183.633V49.1706H185.141V44.5939H183.76V36.1819ZM191.476 46.2047C193.47 46.2047 194.927 45.2075 195.388 43.7246L193.93 43.3155C193.547 44.3382 192.658 44.8496 191.476 44.8496C189.705 44.8496 188.484 43.7054 188.414 41.6024H195.541V40.9632C195.541 37.3069 193.368 36.0541 191.322 36.0541C188.663 36.0541 186.899 38.1507 186.899 41.1677C186.899 44.1848 188.638 46.2047 191.476 46.2047ZM188.414 40.2984C188.516 38.7707 189.596 37.4092 191.322 37.4092C192.959 37.4092 194.007 38.6365 194.007 40.2984H188.414ZM199.344 36.1819H197.836V46.0001H199.344V41.8069H204.049V46.0001H205.557V36.1819H204.049V40.4007H199.344V36.1819ZM206.976 37.5882H210.224V46.0001H211.732V37.5882H214.954V36.1819H206.976V37.5882ZM217.154 49.6819H218.663V44.4916H218.79C219.123 45.0285 219.762 46.2047 221.654 46.2047C224.109 46.2047 225.822 44.2359 225.822 41.1166C225.822 38.0228 224.109 36.0541 221.629 36.0541C219.711 36.0541 219.123 37.2302 218.79 37.7416H218.612V36.1819H217.154V49.6819ZM218.637 41.091C218.637 38.8922 219.609 37.4092 221.45 37.4092C223.367 37.4092 224.313 39.02 224.313 41.091C224.313 43.1876 223.342 44.8496 221.45 44.8496C219.634 44.8496 218.637 43.3155 218.637 41.091ZM98.1278 63.4603C99.6619 63.4731 100.576 64.8794 100.774 66.3496H97.1307V67.7558H100.787C100.627 69.2515 99.6811 70.7601 98.1278 70.7728C96.9773 70.7601 95.9034 69.7629 95.9034 68.6507H94.4205C94.4205 70.6067 95.9801 72.1791 98.1278 72.1791C100.812 72.1791 102.321 69.8971 102.321 67.2956V66.9376C102.321 64.3361 100.812 62.0541 98.1278 62.0541C96.2102 62.0541 94.4205 63.6265 94.4205 65.3268H95.9034C95.9034 64.3105 97.1051 63.4731 98.1278 63.4603ZM108.608 72.2047C110.781 72.2047 112.213 70.8751 112.468 69.1365H110.96C110.679 70.2103 109.784 70.8496 108.608 70.8496C106.818 70.8496 105.667 69.3666 105.667 67.091C105.667 64.8666 106.843 63.4092 108.608 63.4092C109.937 63.4092 110.73 64.2274 110.96 65.1223H112.468C112.213 63.2814 110.653 62.0541 108.582 62.0541C105.923 62.0541 104.159 64.1507 104.159 67.1422C104.159 70.0825 105.846 72.2047 108.608 72.2047ZM113.9 63.5882H117.147V72.0001H118.656V63.5882H121.877V62.1819H113.9V63.5882ZM127.685 72.2047C129.679 72.2047 131.136 71.2075 131.597 69.7246L130.139 69.3155C129.756 70.3382 128.867 70.8496 127.685 70.8496C125.914 70.8496 124.693 69.7054 124.623 67.6024H131.75V66.9632C131.75 63.3069 129.577 62.0541 127.531 62.0541C124.872 62.0541 123.108 64.1507 123.108 67.1677C123.108 70.1848 124.847 72.2047 127.685 72.2047ZM124.623 66.2984C124.725 64.7707 125.805 63.4092 127.531 63.4092C129.168 63.4092 130.216 64.6365 130.216 66.2984H124.623ZM133.131 63.5882H136.378V72.0001H137.886V63.5882H141.108V62.1819H133.131V63.5882ZM144.817 69.7757V62.1819H143.308V72.0001H145.073L149.777 64.4064V72.0001H151.286V62.1819H149.547L144.817 69.7757ZM161.617 62.1819H160.108V67.1613C159.38 67.3723 158.632 67.5001 157.73 67.5001C156.503 67.5001 155.557 66.8098 155.557 65.3013V62.1564H154.049V65.3013C154.049 67.7047 155.506 68.9064 157.73 68.9064C158.657 68.9064 159.399 68.7849 160.108 68.574V72.0001H161.617V62.1819ZM168.501 72.2047C170.495 72.2047 171.953 71.2075 172.413 69.7246L170.956 69.3155C170.572 70.3382 169.684 70.8496 168.501 70.8496C166.73 70.8496 165.51 69.7054 165.439 67.6024H172.566V66.9632C172.566 63.3069 170.393 62.0541 168.348 62.0541C165.689 62.0541 163.924 64.1507 163.924 67.1677C163.924 70.1848 165.663 72.2047 168.501 72.2047ZM165.439 66.2984C165.542 64.7707 166.622 63.4092 168.348 63.4092C169.984 63.4092 171.032 64.6365 171.032 66.2984H165.439ZM178.85 72.2047C181.023 72.2047 182.455 70.8751 182.711 69.1365H181.202C180.921 70.2103 180.026 70.8496 178.85 70.8496C177.06 70.8496 175.909 69.3666 175.909 67.091C175.909 64.8666 177.086 63.4092 178.85 63.4092C180.179 63.4092 180.972 64.2274 181.202 65.1223H182.711C182.455 63.2814 180.895 62.0541 178.824 62.0541C176.165 62.0541 174.401 64.1507 174.401 67.1422C174.401 70.0825 176.088 72.2047 178.85 72.2047ZM184.916 72.0001H186.424V67.8581H187.779L191.001 72.0001H192.944L188.93 66.9121L192.893 62.1819H190.95L187.422 66.4518H186.424V62.1819H184.916V72.0001ZM198.168 72.2047C200.827 72.2047 202.617 70.1848 202.617 67.1422C202.617 64.074 200.827 62.0541 198.168 62.0541C195.509 62.0541 193.719 64.074 193.719 67.1422C193.719 70.1848 195.509 72.2047 198.168 72.2047ZM198.168 70.8496C196.148 70.8496 195.228 69.1109 195.228 67.1422C195.228 65.1734 196.148 63.4092 198.168 63.4092C200.188 63.4092 201.108 65.1734 201.108 67.1422C201.108 69.1109 200.188 70.8496 198.168 70.8496ZM206.428 69.7757V62.1819H204.92V72.0001H206.684L211.388 64.4064V72.0001H212.897V62.1819H211.158L206.428 69.7757ZM210.161 58.9092C210.161 59.574 209.803 60.1621 208.908 60.1621C208.013 60.1621 207.681 59.574 207.681 58.9092H206.275C206.275 60.2899 207.298 61.2615 208.908 61.2615C210.545 61.2615 211.567 60.2899 211.567 58.9092H210.161ZM220.722 72.0001H222.231V67.8581H223.586L226.808 72.0001H228.751L224.737 66.9121L228.7 62.1819H226.757L223.228 66.4518H222.231V62.1819H220.722V72.0001ZM233.975 72.2047C236.634 72.2047 238.424 70.1848 238.424 67.1422C238.424 64.074 236.634 62.0541 233.975 62.0541C231.316 62.0541 229.526 64.074 229.526 67.1422C229.526 70.1848 231.316 72.2047 233.975 72.2047ZM233.975 70.8496C231.955 70.8496 231.034 69.1109 231.034 67.1422C231.034 65.1734 231.955 63.4092 233.975 63.4092C235.995 63.4092 236.915 65.1734 236.915 67.1422C236.915 69.1109 235.995 70.8496 233.975 70.8496ZM244.715 72.2047C246.888 72.2047 248.32 70.8751 248.576 69.1365H247.067C246.786 70.2103 245.891 70.8496 244.715 70.8496C242.925 70.8496 241.775 69.3666 241.775 67.091C241.775 64.8666 242.951 63.4092 244.715 63.4092C246.045 63.4092 246.837 64.2274 247.067 65.1223H248.576C248.32 63.2814 246.76 62.0541 244.689 62.0541C242.03 62.0541 240.266 64.1507 240.266 67.1422C240.266 70.0825 241.954 72.2047 244.715 72.2047ZM256.15 69.9547L252.775 62.1819H250.781V72.0001H252.29V64.3488L255.537 72.0001H256.764L260.011 64.4895V72.0001H261.52V62.1819H259.577L256.15 69.9547ZM268.398 72.2047C270.392 72.2047 271.849 71.2075 272.309 69.7246L270.852 69.3155C270.469 70.3382 269.58 70.8496 268.398 70.8496C266.627 70.8496 265.406 69.7054 265.336 67.6024H272.463V66.9632C272.463 63.3069 270.29 62.0541 268.244 62.0541C265.585 62.0541 263.821 64.1507 263.821 67.1677C263.821 70.1848 265.559 72.2047 268.398 72.2047ZM265.336 66.2984C265.438 64.7707 266.518 63.4092 268.244 63.4092C269.881 63.4092 270.929 64.6365 270.929 66.2984H265.336ZM273.844 63.5882H277.091V72.0001H278.599V63.5882H281.821V62.1819H273.844V63.5882ZM287.5 72.2047C290.159 72.2047 291.949 70.1848 291.949 67.1422C291.949 64.074 290.159 62.0541 287.5 62.0541C284.841 62.0541 283.051 64.074 283.051 67.1422C283.051 70.1848 284.841 72.2047 287.5 72.2047ZM287.5 70.8496C285.48 70.8496 284.56 69.1109 284.56 67.1422C284.56 65.1734 285.48 63.4092 287.5 63.4092C289.52 63.4092 290.441 65.1734 290.441 67.1422C290.441 69.1109 289.52 70.8496 287.5 70.8496ZM293.382 72.0001H293.894C296.067 72.0001 296.694 70.3126 296.834 67.091L296.988 63.5882H300.593V72.0001H302.101V62.1819H295.556L295.377 66.5285C295.249 69.8268 294.917 70.5939 293.74 70.5939H293.382V72.0001ZM308.858 72.2047C311.517 72.2047 313.306 70.1848 313.306 67.1422C313.306 64.074 311.517 62.0541 308.858 62.0541C306.199 62.0541 304.409 64.074 304.409 67.1422C304.409 70.1848 306.199 72.2047 308.858 72.2047ZM308.858 70.8496C306.838 70.8496 305.917 69.1109 305.917 67.1422C305.917 65.1734 306.838 63.4092 308.858 63.4092C310.877 63.4092 311.798 65.1734 311.798 67.1422C311.798 69.1109 310.877 70.8496 308.858 70.8496ZM321.669 62.1819H315.609V72.0001H317.118V63.5882H321.669V62.1819ZM325.379 69.7757V62.1819H323.871V72.0001H325.635L330.34 64.4064V72.0001H331.848V62.1819H330.11L325.379 69.7757ZM336.12 69.7757V62.1819H334.611V72.0001H336.375L341.08 64.4064V72.0001H342.588V62.1819H340.85L336.12 69.7757Z" fill="#1C1E23"/>
</svg>
