<svg width="22" height="22" viewBox="0 0 22 22" fill="none" xmlns="http://www.w3.org/2000/svg">
<g clip-path="url(#clip0)">
<path d="M21.5722 17.4935L19.1333 15.8674L16.9651 14.4223C16.5467 14.1439 15.9844 14.2351 15.6755 14.6316L14.3339 16.3563C14.0457 16.7306 13.5273 16.8382 13.114 16.6093C12.2037 16.103 11.1272 15.6262 8.75201 13.2479C6.37681 10.8697 5.89698 9.79626 5.3906 8.88593C5.1618 8.47266 5.26935 7.95425 5.6436 7.66611L7.3683 6.32451C7.76477 6.01565 7.85608 5.45333 7.57769 5.03486L6.17692 2.9335L4.50645 0.427762C4.22213 0.00125942 3.65297 -0.126786 3.2134 0.136824L1.28688 1.29258C0.766232 1.59933 0.383514 2.09467 0.218 2.6759C-0.308834 4.59671 -0.415051 8.83394 6.37565 15.6246C13.1664 22.4153 17.4032 22.3088 19.324 21.7819C19.9052 21.6164 20.4006 21.2337 20.7073 20.713L21.8631 18.7865C22.1267 18.3469 21.9987 17.7778 21.5722 17.4935Z" fill="black"/>
<path d="M12.516 3.41369C16.0756 3.41765 18.9602 6.30228 18.9642 9.8619C18.9642 10.0714 19.134 10.2412 19.3435 10.2412C19.553 10.2412 19.7228 10.0714 19.7228 9.8619C19.7185 5.88351 16.4944 2.65947 12.516 2.65509C12.3066 2.65509 12.1367 2.8249 12.1367 3.03441C12.1367 3.24384 12.3065 3.41369 12.516 3.41369Z" fill="black"/>
<path d="M12.517 5.68949C14.8202 5.6922 16.6867 7.55866 16.6894 9.86184C16.6894 10.0713 16.8592 10.2412 17.0687 10.2412C17.2782 10.2412 17.448 10.0714 17.448 9.86184C17.4449 7.13985 15.2391 4.93398 12.517 4.93085C12.3075 4.93085 12.1377 5.10066 12.1377 5.31017C12.1377 5.51968 12.3075 5.68949 12.517 5.68949Z" fill="black"/>
<path d="M12.516 7.96533C13.5629 7.96658 14.4113 8.81494 14.4125 9.86186C14.4125 10.0713 14.5823 10.2412 14.7919 10.2412C15.0013 10.2412 15.1712 10.0714 15.1712 9.86186C15.1695 8.39617 13.9817 7.2084 12.516 7.20673C12.3066 7.20673 12.1367 7.37654 12.1367 7.58605C12.1367 7.79552 12.3065 7.96533 12.516 7.96533Z" fill="black"/>
</g>
<defs>
<clipPath id="clip0">
<rect width="22" height="22" fill="white"/>
</clipPath>
</defs>
</svg>
